<svg width="48" height="48" viewBox="0 0 48 48" fill="none" xmlns="http://www.w3.org/2000/svg">
<path d="M37.3504 17.3963C37.037 16.2181 36.1099 15.2886 34.9304 14.9701C32.7976 14.3984 24.2405 14.3984 24.2405 14.3984C24.2405 14.3984 15.6878 14.3984 13.5507 14.9701C12.3756 15.2843 11.4485 16.2137 11.1307 17.3963C10.5605 19.5344 10.5605 23.9984 10.5605 23.9984C10.5605 23.9984 10.5605 28.4624 11.1307 30.6006C11.4441 31.7788 12.3712 32.7083 13.5507 33.0268C15.6878 33.5984 24.2405 33.5984 24.2405 33.5984C24.2405 33.5984 32.7976 33.5984 34.9304 33.0268C36.1055 32.7126 37.0326 31.7832 37.3504 30.6006C37.9205 28.4624 37.9205 23.9984 37.9205 23.9984C37.9205 23.9984 37.9205 19.5344 37.3504 17.3963Z" fill="white"/>
<path d="M21.5068 28.1166L28.6144 24.0016L21.5068 19.8867V28.1166Z" fill="#044170"/>
</svg>
